<svg xmlns="http://www.w3.org/2000/svg" viewBox="0 0 142.3 60" width="142.3" height="60" role="img" aria-label="Aena">
<path d="M60.1406 58.6937C52.8658 49.1949 47.6912 39.8931 44.4761 30.3942C41.1879 20.7039 39.9829 10.839 40.7036 0.495542C40.7036 0.377299 40.6304 0.275947 40.5347 0.253425L39.5381 0.0281995C39.3523 -0.0281068 39.1946 4.63969e-05 39.1214 0.191488C35.6417 8.17009 30.2644 15.214 23.2543 21.1149C16.7734 26.5485 8.99191 30.9967 0.146193 34.1386C0.0729949 34.1611 -0.00583395 34.2287 -0.000203321 34.3582L0.146193 35.7095C0.168716 35.8277 0.241914 35.9009 0.365788 35.9009C1.16534 35.8784 1.88606 35.8784 2.61241 35.8784C9.30723 35.8784 15.7599 36.5316 25.7205 39.7467C37.1788 43.4178 48.3669 50.2365 58.9525 59.955C59.0651 60.0338 59.1721 60.0057 59.2453 59.9325L60.118 58.9415C60.1743 58.8683 60.2025 58.7726 60.1462 58.6937H60.1406Z" fill="#95C11F"/>
<path d="M60.3768 31.5708C61.0469 28.5246 62.905 27.0212 67.8092 26.43L72.6741 25.8388C72.8318 24.1383 72.0435 23.5077 69.9827 23.5077C68.2822 23.5077 66.5424 23.7442 64.2901 24.2566C63.4624 24.4536 63.1809 24.1383 63.3385 23.3895L64.0874 19.9097C64.2056 19.3185 64.3633 19.1609 65.1178 18.9187C67.0942 18.3275 69.307 18.0122 71.4466 18.0122C77.4939 18.0122 79.8701 21.4131 78.6032 27.421L76.5086 37.3872C76.3903 37.939 76.1933 38.1361 75.557 38.1361H72.0773C71.4072 38.1361 71.2101 37.9784 71.1651 37.3478L71.1257 36.1597C69.5435 37.8996 68.0401 38.4908 65.8273 38.4908C61.5987 38.4908 59.4984 35.4841 60.3712 31.5708H60.3768ZM68.2484 33.9863C69.3183 33.9863 70.3824 33.5527 71.2946 32.68L71.9646 29.5944L68.8002 29.9097C67.2574 30.0674 66.5874 30.6586 66.3509 31.689C66.075 32.9953 66.7451 33.9807 68.2484 33.9807V33.9863Z" fill="#1A2732"/>
<path d="M81.4411 26.7062C82.7474 20.6983 86.0695 18.0068 91.6832 18.0068C97.6517 18.0068 100.264 21.8413 99.0368 28.4066L98.9186 29.0372C98.7609 29.8255 98.485 30.0676 97.9276 30.0676H87.3307C87.3702 32.517 88.7553 33.5474 91.6832 33.5474C93.2654 33.5474 95.0053 33.3503 96.5481 32.8773C97.297 32.6408 97.6573 33.0744 97.5391 33.6262L96.7902 36.9089C96.672 37.4607 96.5143 37.6577 95.878 37.8604C94.0988 38.4122 92.4377 38.5305 90.8161 38.5305C83.226 38.5305 79.8645 33.9021 81.4467 26.7062H81.4411ZM87.8882 26.4303H93.7778C94.1325 23.8233 93.3048 22.714 91.5256 22.714C89.7463 22.714 88.637 23.5868 87.8882 26.4303Z" fill="#1A2732"/>
<path d="M100.186 37.1059L104.02 19.1555C104.138 18.6037 104.336 18.4066 104.972 18.4066H108.649C109.279 18.4066 109.476 18.6431 109.476 19.1949L109.516 20.7771C111.098 18.9584 113.074 18.0068 115.726 18.0068C119.324 18.0068 121.655 20.3773 120.473 25.9967L118.063 37.3875C117.945 37.9393 117.748 38.1363 117.111 38.1363H112.562C111.852 38.1363 111.65 37.7816 111.813 37.1059L114.262 25.7152C114.617 24.0147 113.908 23.187 112.483 23.187C111.374 23.187 110.191 23.6994 109.161 24.6904L106.43 37.3818C106.312 37.9336 106.115 38.1307 105.479 38.1307H100.929C100.22 38.1307 100.017 37.776 100.18 37.1003L100.186 37.1059Z" fill="#1A2732"/>
<path d="M121.779 31.5708C122.449 28.5246 124.307 27.0212 129.212 26.43L134.076 25.8388C134.234 24.1383 133.446 23.5077 131.385 23.5077C129.685 23.5077 127.945 23.7442 125.692 24.2566C124.865 24.4536 124.583 24.1383 124.741 23.3895L125.49 19.9097C125.608 19.3185 125.766 19.1609 126.52 18.9187C128.496 18.3275 130.709 18.0122 132.849 18.0122C138.896 18.0122 141.272 21.4131 140.005 27.421L137.911 37.3872C137.793 37.939 137.596 38.1361 136.959 38.1361H133.48C132.81 38.1361 132.612 37.9784 132.567 37.3478L132.528 36.1597C130.946 37.8996 129.442 38.4908 127.23 38.4908C123.001 38.4908 120.901 35.4841 121.774 31.5708H121.779ZM129.645 33.9863C130.715 33.9863 131.779 33.5527 132.691 32.68L133.361 29.5944L130.197 29.9097C128.654 30.0674 127.984 30.6586 127.748 31.689C127.472 32.9953 128.142 33.9807 129.645 33.9807V33.9863Z" fill="#1A2732"/>
</svg>
